<svg xmlns="http://www.w3.org/2000/svg" width="43" height="41" viewBox="0 0 43 41">
  <g fill="none" fill-rule="evenodd">
    <path fill="#2A9F30"
          d="M5.503 5.333l7.492 4.307L29.748 0c.856.366 1.683.787 2.478 1.258l-19.23 11.104-8.988-5.176c.464-.646.963-1.264 1.495-1.853zM2.826 9.02l10.17 5.846L34.261 2.628a21.471 21.471 0 0 1 1.892 1.62L12.995 17.57 1.771 11.115c.314-.72.666-1.42 1.055-2.096zM.959 13.295l12.036 6.92L37.762 5.972c.505.607.978 1.241 1.415 1.902L12.995 22.92.371 15.66c.152-.805.349-1.594.588-2.365zm-.91 4.89l12.946 7.457L40.34 9.855a21.264 21.264 0 0 1 2.37 9.788c0 11.794-9.561 21.355-21.355 21.355S0 31.437 0 19.643c0-.49.016-.976.049-1.458z"
          style="mix-blend-mode:darken"></path>
  </g>
</svg>
